<svg width="325" height="60" viewBox="0 0 325 60" fill="none" xmlns="http://www.w3.org/2000/svg">
<g clip-path="url(#clip0_416_186)">
<path d="M11.5717 28.4579L8.85046 37.8483C8.76479 38.1255 8.63131 38.3858 8.45597 38.6176C8.36892 38.719 8.25914 38.7988 8.13544 38.8504C8.01174 38.9021 7.87757 38.9243 7.7437 38.9151H5.18683C5.05073 38.9202 4.91511 38.8963 4.7891 38.845C4.66308 38.7937 4.5496 38.7161 4.45629 38.6176C4.26841 38.3976 4.1424 38.1322 4.09103 37.8483L0.0329064 18.0298C0.0138582 17.9476 0.00284906 17.8637 3.23048e-05 17.7794C-0.000958905 17.6679 0.0208694 17.5573 0.0641934 17.4544C0.107517 17.3514 0.171434 17.2583 0.252067 17.1807C0.329961 17.1003 0.423633 17.0366 0.527295 16.9935C0.630956 16.9504 0.742406 16.9289 0.854758 16.9303H3.19247C3.40801 16.9309 3.61827 16.9967 3.79516 17.119C3.89721 17.1994 3.98208 17.2992 4.0448 17.4126C4.10752 17.526 4.14683 17.6507 4.16043 17.7794L6.83053 31.0958L9.16824 22.7105C9.2389 22.5045 9.33983 22.3101 9.46776 22.1335C9.56001 22.0097 9.68261 21.9114 9.82389 21.8479C9.96518 21.7844 10.1205 21.7578 10.275 21.7707H12.8684C13.0224 21.7577 13.1772 21.7843 13.3179 21.8478C13.4586 21.9114 13.5805 22.0097 13.672 22.1335C13.8012 22.3059 13.9034 22.4968 13.9752 22.6996L16.3129 31.0849L18.9684 17.7794C18.9822 17.6508 19.0216 17.5262 19.0843 17.4128C19.147 17.2994 19.2317 17.1996 19.3336 17.119C19.5105 16.9967 19.7208 16.9309 19.9363 16.9303H22.2813C22.5081 16.9313 22.7253 17.0209 22.886 17.1799C23.0466 17.3388 23.1378 17.5542 23.1397 17.7794C23.1384 17.8636 23.1287 17.9475 23.1105 18.0298L19.0633 37.8483C19.0137 38.1328 18.8874 38.3986 18.6981 38.6176C18.6049 38.7163 18.4914 38.794 18.3654 38.8453C18.2393 38.8967 18.1037 38.9205 17.9675 38.9151H15.4107C15.2768 38.9237 15.1429 38.9013 15.0192 38.8497C14.8956 38.798 14.7858 38.7186 14.6984 38.6176C14.5244 38.3849 14.3911 38.1249 14.3039 37.8483L11.5717 28.4579Z" fill="#263746"/>
<path d="M26.1235 25.127C26.1775 23.9947 26.4067 22.8773 26.8029 21.8142C27.1766 20.8022 27.7645 19.8817 28.5269 19.1147C29.3374 18.3191 30.3067 17.7011 31.3724 17.3004C32.6693 16.8195 34.0465 16.588 35.4305 16.6183C36.7991 16.5886 38.1615 16.8112 39.4484 17.275C40.4951 17.6574 41.4464 18.2596 42.2375 19.0404C43.0286 19.8213 43.6409 20.7624 44.0325 21.7997C44.4402 22.8652 44.6745 23.9883 44.7265 25.127C44.7484 25.5261 44.7631 25.9652 44.774 26.4477C44.785 26.9303 44.774 27.4238 44.774 27.939C44.774 28.4543 44.774 28.9478 44.774 29.4303C44.774 29.9129 44.7484 30.352 44.7265 30.7511C44.6729 31.8823 44.4437 32.9985 44.0471 34.0602C43.6725 35.0729 43.0848 35.9944 42.3231 36.7634C41.5111 37.5641 40.5359 38.1827 39.463 38.5776C38.1755 39.0389 36.8136 39.2615 35.4451 39.2344C34.0668 39.2656 32.6946 39.043 31.3979 38.5776C30.3312 38.1791 29.3615 37.5608 28.5525 36.7634C27.7908 35.9944 27.203 35.0729 26.8284 34.0602C26.4319 32.9985 26.2027 31.8823 26.149 30.7511C26.1271 30.352 26.1125 29.9129 26.1015 29.4303C26.0906 28.9478 26.1015 28.4507 26.1015 27.939C26.1015 27.4274 26.1015 26.9267 26.1015 26.4477C26.1015 25.9688 26.1015 25.5261 26.1235 25.127ZM40.4456 25.283C40.3604 23.776 39.8733 22.6089 38.9845 21.7816C38.0957 20.9543 36.911 20.5419 35.4305 20.5443C33.9548 20.5443 32.7689 20.9567 31.8728 21.7816C30.9779 22.6089 30.4848 23.7772 30.4117 25.283C30.3496 26.0813 30.3167 26.963 30.3167 27.939C30.3167 28.9151 30.3387 29.7968 30.3825 30.5914C30.4628 32.1009 30.956 33.262 31.8436 34.0784C32.7312 34.8948 33.9256 35.3012 35.4013 35.3012C36.8769 35.3012 38.0604 34.8948 38.9553 34.0784C39.8502 33.262 40.3433 32.1009 40.4164 30.5914C40.4578 29.798 40.4785 28.9139 40.4785 27.939C40.5077 26.963 40.4858 26.0813 40.4456 25.283V25.283Z" fill="#263746"/>
<path d="M58.1686 16.9303C60.801 16.9303 62.8026 17.5351 64.1736 18.7446C65.5446 19.954 66.2301 21.6401 66.2301 23.8026C66.2716 25.1809 65.9018 26.5405 65.1671 27.7104C64.4195 28.826 63.3273 29.6702 62.0551 30.1161L66.4383 37.8737C66.4985 37.9855 66.531 38.1098 66.5332 38.2366C66.5295 38.4192 66.4548 38.5933 66.3248 38.7225C66.1947 38.8517 66.0194 38.9259 65.8356 38.9296H63.1472C62.8094 38.9562 62.4747 38.8493 62.2158 38.6321C62.0451 38.4716 61.9009 38.2855 61.7884 38.0805L57.6317 30.7511H53.4238V38.066C53.4219 38.29 53.3317 38.5043 53.1726 38.663C53.0136 38.8218 52.7982 38.9122 52.5727 38.9151H50.0159C49.7898 38.9132 49.5735 38.8231 49.4136 38.6643C49.2537 38.5055 49.163 38.2906 49.1611 38.066V17.7794C49.163 17.5548 49.2537 17.3399 49.4136 17.1811C49.5735 17.0223 49.7898 16.9322 50.0159 16.9303H58.1686ZM53.4201 26.8215H58.0043C59.0028 26.8697 59.9962 26.653 60.8826 26.1938C61.5985 25.7777 61.9564 24.9831 61.9564 23.8099C61.9564 22.6379 61.5912 21.8505 60.8826 21.455C59.9896 21.0167 58.9992 20.8107 58.0043 20.8563H53.4238L53.4201 26.8215Z" fill="#263746"/>
<path d="M86.0821 34.9891C86.307 34.9919 86.5218 35.0819 86.6808 35.2399C86.8398 35.3978 86.9304 35.6112 86.9332 35.8345V38.066C86.9313 38.2906 86.8406 38.5055 86.6808 38.6643C86.5209 38.8231 86.3046 38.9132 86.0785 38.9151H72.2349C72.0094 38.9123 71.794 38.8218 71.6349 38.6631C71.4758 38.5043 71.3857 38.29 71.3838 38.066V17.7794C71.3857 17.5554 71.4758 17.3411 71.6349 17.1824C71.794 17.0237 72.0094 16.9332 72.2349 16.9303H74.7917C75.0185 16.9313 75.2357 17.0209 75.3964 17.1798C75.557 17.3388 75.6482 17.5542 75.6501 17.7794V34.9891H86.0821Z" fill="#263746"/>
<path d="M99.0052 16.9303C100.384 16.9033 101.758 17.1106 103.067 17.5435C104.143 17.9087 105.125 18.5032 105.945 19.2852C106.726 20.0596 107.33 20.9913 107.717 22.0174C108.139 23.1681 108.386 24.3753 108.447 25.5987C108.531 27.1469 108.531 28.6985 108.447 30.2467C108.386 31.4702 108.14 32.6774 107.717 33.828C107.339 34.867 106.73 35.8084 105.937 36.5828C105.143 37.3571 104.185 37.9446 103.133 38.3019C101.855 38.7334 100.512 38.9409 99.1623 38.9151H91.1958C90.9703 38.9123 90.755 38.8218 90.5959 38.6631C90.4368 38.5043 90.3466 38.29 90.3447 38.066V17.7794C90.3466 17.5554 90.4368 17.3411 90.5959 17.1824C90.755 17.0236 90.9703 16.9332 91.1958 16.9303H99.0052ZM104.192 25.5987C104.155 24.9594 104.021 24.3293 103.794 23.73C103.58 23.1641 103.246 22.6505 102.815 22.2242C102.351 21.773 101.792 21.4297 101.179 21.2192C100.427 20.9608 99.6356 20.8379 98.8408 20.8563H94.6037V35.0073H98.9869C99.7518 35.0241 100.513 34.9011 101.233 34.6444C101.824 34.4304 102.362 34.0939 102.811 33.6575C103.24 33.2303 103.569 32.7151 103.776 32.148C104.002 31.5436 104.136 30.9088 104.174 30.2649C104.264 28.7109 104.271 27.1533 104.192 25.5987V25.5987Z" fill="#263746"/>
<path d="M199.801 16.6183C201.068 16.5964 202.33 16.7865 203.534 17.1807C204.502 17.5014 205.409 17.9796 206.219 18.5958C206.885 19.1018 207.439 19.7377 207.848 20.4644C208.189 21.0572 208.399 21.7152 208.465 22.3948C208.479 22.5085 208.464 22.6237 208.423 22.7306C208.382 22.8374 208.315 22.9327 208.228 23.008C208.059 23.1605 207.839 23.2446 207.611 23.2438H205.397C205.114 23.264 204.832 23.1927 204.593 23.0406C204.402 22.8884 204.239 22.7043 204.111 22.4964C203.751 21.9315 203.257 21.463 202.672 21.1321C202.029 20.7426 201.076 20.5491 199.812 20.5515C199.286 20.5497 198.762 20.6069 198.249 20.7221C197.793 20.8219 197.355 20.992 196.952 21.2264C196.606 21.4248 196.309 21.6976 196.083 22.0247C195.867 22.3465 195.756 22.7266 195.765 23.1132C195.747 23.5262 195.853 23.9351 196.068 24.2888C196.331 24.6243 196.681 24.8826 197.08 25.0363C197.686 25.2983 198.316 25.5024 198.961 25.6459C199.738 25.8345 200.712 26.0547 201.883 26.3062C203.004 26.5337 204.104 26.8541 205.171 27.2641C205.989 27.5723 206.748 28.0192 207.413 28.5849C207.975 29.0713 208.418 29.678 208.71 30.3592C208.997 31.0904 209.132 31.8716 209.108 32.656C209.115 33.5685 208.898 34.4688 208.476 35.2794C208.043 36.0985 207.425 36.8075 206.672 37.3512C205.802 37.9722 204.829 38.4353 203.797 38.7191C202.553 39.0668 201.265 39.2355 199.973 39.2199C198.83 39.2248 197.692 39.0821 196.587 38.7953C195.574 38.5411 194.609 38.1284 193.727 37.5726C192.931 37.0738 192.248 36.4165 191.721 35.6422C191.216 34.8947 190.921 34.0266 190.867 33.1277C190.852 33.014 190.867 32.8985 190.908 32.7916C190.949 32.6846 191.017 32.5894 191.104 32.5145C191.273 32.3627 191.494 32.2798 191.721 32.2823H193.913C194.199 32.265 194.484 32.3292 194.735 32.4673C194.94 32.6113 195.104 32.8065 195.21 33.0334C195.378 33.323 195.57 33.5984 195.783 33.857C196.018 34.1516 196.308 34.3981 196.638 34.5827C197.057 34.8163 197.507 34.9898 197.975 35.098C198.633 35.2477 199.308 35.316 199.984 35.3012C200.595 35.3015 201.206 35.2554 201.81 35.1633C202.347 35.0831 202.869 34.9242 203.359 34.6916C203.769 34.4947 204.134 34.2169 204.433 33.8752C204.713 33.5315 204.857 33.0979 204.838 32.656C204.846 32.4479 204.811 32.2404 204.735 32.0463C204.659 31.8522 204.544 31.6757 204.396 31.5276C204.009 31.181 203.55 30.9233 203.052 30.7729C202.323 30.5282 201.578 30.3295 200.824 30.1778C199.94 29.9891 198.917 29.746 197.759 29.4521C196.812 29.2337 195.886 28.9338 194.991 28.5559C194.265 28.2533 193.602 27.8217 193.033 27.2823C192.517 26.7856 192.123 26.1788 191.878 25.508C191.612 24.7256 191.489 23.9024 191.513 23.0769C191.501 22.1737 191.713 21.2814 192.131 20.479C192.554 19.6818 193.147 18.986 193.869 18.4398C194.665 17.8438 195.56 17.3918 196.514 17.1045C197.577 16.7737 198.687 16.6097 199.801 16.6183V16.6183Z" fill="#263746"/>
<path d="M227.445 34.9891C227.669 34.9929 227.883 35.0833 228.041 35.2411C228.199 35.3989 228.289 35.6118 228.292 35.8345V38.066C228.29 38.29 228.2 38.5043 228.041 38.6631C227.882 38.8218 227.666 38.9123 227.441 38.9151H213.561C213.449 38.916 213.338 38.8943 213.235 38.8512C213.132 38.8082 213.039 38.7447 212.962 38.6647C212.881 38.5873 212.816 38.4943 212.772 38.3914C212.728 38.2885 212.706 38.1778 212.706 38.066V17.7794C212.706 17.6676 212.728 17.5569 212.772 17.454C212.816 17.3511 212.881 17.2582 212.962 17.1807C213.039 17.1007 213.132 17.0372 213.235 16.9942C213.338 16.9511 213.449 16.9294 213.561 16.9303H227.196C227.421 16.9341 227.635 17.025 227.794 17.1836C227.952 17.3422 228.042 17.556 228.044 17.7794V20.0073C228.042 20.2306 227.952 20.4444 227.794 20.603C227.635 20.7616 227.421 20.8525 227.196 20.8563H216.969V25.8491H226.484C226.71 25.851 226.926 25.941 227.086 26.0998C227.246 26.2587 227.337 26.4735 227.339 26.6981V28.9296C227.336 29.1536 227.245 29.3675 227.085 29.5256C226.925 29.6836 226.709 29.7732 226.484 29.775H216.969V34.9891H227.445Z" fill="#263746"/>
<path d="M246.555 38.9151C246.406 38.9261 246.256 38.9067 246.114 38.8581C245.973 38.8094 245.843 38.7325 245.733 38.6321C245.588 38.4928 245.45 38.3463 245.32 38.193L236.47 25.1306V38.0697C236.468 38.2943 236.377 38.5091 236.217 38.6679C236.057 38.8268 235.841 38.9168 235.615 38.9187H233.058C232.833 38.9159 232.617 38.8254 232.458 38.6667C232.299 38.508 232.209 38.2936 232.207 38.0697V17.7794C232.209 17.5554 232.299 17.3411 232.458 17.1824C232.617 17.0237 232.833 16.9332 233.058 16.9303H235.272C235.421 16.9193 235.571 16.9387 235.712 16.9874C235.853 17.036 235.983 17.113 236.093 17.2134C236.283 17.402 236.419 17.5472 236.506 17.6524L245.357 30.7148V17.7794C245.359 17.5548 245.449 17.3399 245.609 17.1811C245.769 17.0223 245.985 16.9322 246.211 16.9303H248.768C248.996 16.9294 249.215 17.0182 249.378 17.1773C249.54 17.3364 249.632 17.5529 249.634 17.7794V38.066C249.632 38.29 249.542 38.5043 249.383 38.6631C249.224 38.8218 249.008 38.9123 248.783 38.9151H246.555Z" fill="#263746"/>
<path d="M262.156 16.6183C263.422 16.5964 264.683 16.7865 265.885 17.1807C266.854 17.5023 267.762 17.9804 268.574 18.5958C269.238 19.1018 269.792 19.7378 270.199 20.4644C270.54 21.0572 270.751 21.7152 270.816 22.3948C270.831 22.5085 270.817 22.6241 270.776 22.7311C270.734 22.8381 270.667 22.9333 270.579 23.008C270.41 23.1608 270.19 23.2449 269.962 23.2438H267.741C267.457 23.2635 267.174 23.1922 266.934 23.0406C266.744 22.8882 266.582 22.7041 266.455 22.4964C266.094 21.9322 265.6 21.464 265.016 21.1321C264.373 20.7426 263.42 20.5491 262.156 20.5515C261.629 20.5498 261.103 20.607 260.589 20.7221C260.133 20.8225 259.696 20.9926 259.292 21.2264C258.946 21.4248 258.649 21.6976 258.423 22.0247C258.21 22.3476 258.1 22.7271 258.109 23.1132C258.09 23.5258 258.194 23.9347 258.408 24.2888C258.671 24.6243 259.021 24.8826 259.42 25.0363C260.027 25.2972 260.656 25.5013 261.301 25.6459C262.081 25.8345 263.055 26.0547 264.223 26.3062C265.338 26.5344 266.432 26.8548 267.493 27.2641C268.312 27.5715 269.071 28.0184 269.735 28.5849C270.297 29.076 270.739 29.6877 271.028 30.3737C271.319 31.0993 271.462 31.8751 271.448 32.656C271.455 33.5685 271.238 34.4688 270.816 35.2794C270.385 36.0983 269.768 36.8073 269.016 37.3512C268.145 37.9722 267.171 38.4353 266.137 38.7191C264.893 39.0675 263.605 39.2361 262.313 39.2199C261.172 39.2248 260.035 39.0821 258.931 38.7953C257.918 38.5411 256.953 38.1283 256.071 37.5726C255.274 37.074 254.59 36.4167 254.062 35.6422C253.56 34.8931 253.265 34.0259 253.207 33.1277C253.195 33.0142 253.211 32.8994 253.252 32.7929C253.293 32.6863 253.359 32.591 253.444 32.5145C253.614 32.363 253.834 32.2802 254.062 32.2823H256.275C256.561 32.265 256.846 32.3292 257.097 32.4673C257.302 32.6123 257.465 32.8073 257.572 33.0334C257.728 33.32 257.907 33.5931 258.109 33.8498C258.344 34.1443 258.634 34.3908 258.964 34.5755C259.383 34.811 259.835 34.9857 260.304 35.0943C260.963 35.2437 261.638 35.3119 262.313 35.2975C262.924 35.2979 263.535 35.2518 264.139 35.1596C264.676 35.0802 265.199 34.9212 265.688 34.6879C266.098 34.4911 266.464 34.2133 266.762 33.8715C267.047 33.5309 267.196 33.0985 267.182 32.656C267.19 32.4479 267.155 32.2404 267.079 32.0463C267.003 31.8522 266.887 31.6757 266.74 31.5276C266.353 31.1818 265.894 30.9242 265.396 30.7728C264.666 30.5292 263.922 30.3304 263.168 30.1778C262.28 29.9891 261.257 29.746 260.1 29.4521C259.153 29.2337 258.228 28.9338 257.334 28.5559C256.608 28.2534 255.943 27.8218 255.373 27.2823C254.864 26.7861 254.472 26.1838 254.226 25.5189C253.962 24.7361 253.838 23.9132 253.861 23.0878C253.853 22.1794 254.071 21.2831 254.496 20.479C254.919 19.6812 255.512 18.9851 256.235 18.4398C257.028 17.8435 257.921 17.3914 258.872 17.1045C259.935 16.7745 261.043 16.6105 262.156 16.6183V16.6183Z" fill="#263746"/>
<path d="M275.905 38.9151C275.679 38.9123 275.464 38.8218 275.305 38.6631C275.146 38.5043 275.056 38.29 275.054 38.066V17.7794C275.056 17.5554 275.146 17.3411 275.305 17.1824C275.464 17.0237 275.679 16.9332 275.905 16.9303H278.462C278.688 16.9313 278.906 17.0209 279.066 17.1798C279.227 17.3388 279.318 17.5542 279.32 17.7794V38.066C279.318 38.29 279.228 38.5043 279.069 38.6631C278.91 38.8218 278.694 38.9123 278.469 38.9151H275.905Z" fill="#263746"/>
<path d="M298.606 38.9151C298.457 38.9261 298.307 38.9067 298.166 38.8581C298.024 38.8094 297.895 38.7325 297.784 38.6321C297.639 38.4928 297.502 38.3463 297.372 38.193L288.521 25.1306V38.0697C288.518 38.294 288.427 38.5083 288.268 38.6669C288.108 38.8255 287.892 38.9159 287.666 38.9187H285.11C284.883 38.9168 284.667 38.8268 284.507 38.6679C284.347 38.5091 284.257 38.2943 284.255 38.0697V17.7794C284.257 17.5548 284.347 17.3399 284.507 17.1811C284.667 17.0223 284.883 16.9322 285.11 16.9303H287.323C287.472 16.9193 287.622 16.9387 287.764 16.9874C287.905 17.036 288.035 17.113 288.145 17.2134C288.292 17.3522 288.431 17.4988 288.561 17.6524L297.415 30.7148V17.7794C297.417 17.5554 297.507 17.3411 297.667 17.1824C297.826 17.0237 298.041 16.9332 298.267 16.9303H300.823C301.048 16.9341 301.263 17.025 301.421 17.1836C301.579 17.3422 301.669 17.556 301.671 17.7794V38.066C301.669 38.29 301.579 38.5043 301.42 38.6631C301.261 38.8218 301.045 38.9123 300.82 38.9151H298.606Z" fill="#263746"/>
<path d="M305.812 25.0653C305.838 23.8871 306.073 22.7226 306.506 21.6256C306.912 20.6137 307.535 19.7022 308.333 18.955C309.188 18.1818 310.195 17.5936 311.291 17.2279C314.11 16.3839 317.12 16.4168 319.919 17.3222C320.966 17.7066 321.931 18.2826 322.765 19.0203C323.403 19.5808 323.913 20.2714 324.258 21.045C324.507 21.6099 324.672 22.2075 324.748 22.8193C324.763 22.9331 324.749 23.0487 324.707 23.1558C324.666 23.2629 324.598 23.358 324.51 23.4325C324.343 23.5848 324.124 23.6689 323.897 23.6684H321.34C321.14 23.6796 320.942 23.6176 320.785 23.4942C320.66 23.3963 320.557 23.2725 320.485 23.1314C320.441 23.0479 320.332 22.8629 320.153 22.5798C319.919 22.2422 319.63 21.9455 319.298 21.7017C318.835 21.363 318.324 21.0941 317.782 20.9035C317.019 20.6422 316.215 20.5193 315.408 20.5406C313.83 20.5406 312.563 20.9615 311.617 21.8106C311.141 22.2442 310.761 22.7706 310.499 23.3568C310.238 23.943 310.101 24.5765 310.097 25.2177C310.056 26.016 310.035 26.8699 310.035 27.7794C310.035 28.6889 310.056 29.5416 310.097 30.3375C310.163 32.0743 310.669 33.3358 311.617 34.1219C312.563 34.9057 313.83 35.2975 315.408 35.2975C316.133 35.3042 316.856 35.2201 317.559 35.0472C318.173 34.8985 318.747 34.6214 319.243 34.2344C319.729 33.8364 320.105 33.3236 320.339 32.7431C320.62 32.0218 320.754 31.2522 320.734 30.479V30.225H316.876C316.765 30.2259 316.654 30.2042 316.551 30.1611C316.448 30.1181 316.355 30.0546 316.277 29.9746C316.196 29.8984 316.131 29.8061 316.087 29.7037C316.043 29.6013 316.021 29.4909 316.022 29.3795V27.1372C316.021 27.0258 316.043 26.9154 316.087 26.813C316.131 26.7106 316.196 26.6183 316.277 26.5421C316.355 26.4616 316.448 26.3976 316.551 26.3539C316.654 26.3103 316.764 26.2879 316.876 26.2881H324.149C324.374 26.2919 324.589 26.3826 324.748 26.5412C324.907 26.6997 324.997 26.9135 325 27.1372V30.5914C325.014 31.7743 324.811 32.9497 324.401 34.0602C324.015 35.0952 323.4 36.0304 322.6 36.7961C321.737 37.5952 320.714 38.2047 319.598 38.5849C316.87 39.4314 313.946 39.4314 311.218 38.5849C310.129 38.2151 309.132 37.6161 308.296 36.8288C307.509 36.0625 306.9 35.1351 306.51 34.111C306.088 33.0011 305.859 31.8283 305.831 30.6422C305.809 30.2431 305.794 29.8041 305.783 29.3215C305.772 28.8389 305.783 28.3491 305.783 27.8447C305.783 27.3404 305.783 26.8505 305.783 26.3679C305.783 25.8854 305.79 25.4608 305.812 25.0653Z" fill="#263746"/>
<path d="M156.671 2.38389C153.3 0.795727 149.612 -0.0188948 145.881 0.00033261C142.15 0.01956 138.471 0.872144 135.117 2.49497C131.763 4.11779 128.819 6.46928 126.503 9.37536C124.188 12.2814 122.56 15.6677 121.74 19.2834C120.92 22.8991 120.929 26.6516 121.767 30.2632C122.605 33.8748 124.25 37.253 126.58 40.1476C128.91 43.0422 131.866 45.3791 135.228 46.9853C138.591 48.5915 142.274 49.4259 146.005 49.4267C146.33 49.4267 146.651 49.4267 146.969 49.4049C148.498 49.3476 150.018 49.1496 151.51 48.8135L149.53 58.5232C152.463 59.6624 155.612 60.1503 158.755 59.9528C161.898 59.7553 164.959 58.8771 167.725 57.3799C170.49 55.8826 172.892 53.8026 174.762 51.2855C176.633 48.7685 177.926 45.8755 178.552 42.8093C179.178 39.7432 179.121 36.5782 178.385 33.5363C177.649 30.4944 176.252 27.6492 174.292 25.2004C172.332 22.7515 169.857 20.7582 167.039 19.3603C164.222 17.9624 161.13 17.1937 157.982 17.1081L153.749 37.8483C153.699 38.1328 153.573 38.3987 153.383 38.6176C153.29 38.7159 153.176 38.7933 153.05 38.8447C152.924 38.896 152.789 38.92 152.653 38.9151H149.869C149.746 38.9221 149.622 38.9024 149.506 38.8573C149.391 38.8122 149.287 38.7428 149.201 38.6538C149.186 38.6437 149.172 38.6315 149.161 38.6176C148.985 38.3858 148.852 38.1255 148.766 37.8483L146.034 28.4579L143.317 37.8483C143.229 38.1249 143.096 38.3849 142.922 38.6176C142.835 38.7188 142.725 38.7984 142.601 38.85C142.478 38.9017 142.344 38.924 142.21 38.9151H139.653C139.517 38.9209 139.381 38.8974 139.255 38.846C139.129 38.7946 139.015 38.7167 138.922 38.6176C138.732 38.3995 138.605 38.1333 138.557 37.8483L137.173 31.0631L134.51 18.0298C134.491 17.9475 134.48 17.8637 134.477 17.7794C134.48 17.5551 134.571 17.3408 134.731 17.1821C134.89 17.0235 135.106 16.9332 135.332 16.9303H137.673C137.887 16.9338 138.095 16.9994 138.272 17.119C138.374 17.1996 138.459 17.2994 138.522 17.4128C138.584 17.5261 138.624 17.6508 138.637 17.7794L140.194 25.5842L141.289 31.0958L143.631 22.7104C143.699 22.507 143.8 22.3159 143.93 22.1444C144.022 22.0209 144.144 21.9227 144.285 21.8592C144.425 21.7957 144.58 21.769 144.734 21.7816H147.327C147.482 21.769 147.637 21.7957 147.778 21.8592C147.919 21.9227 148.042 22.0208 148.134 22.1444C148.261 22.3176 148.362 22.5083 148.434 22.7104L150.757 31.0341L156.671 2.38389Z" fill="#263746"/>
</g>
<defs>
<clipPath id="clip0_416_186">
<rect width="325" height="60" fill="white"/>
</clipPath>
</defs>
</svg>
